<?xml version="1.0" encoding="UTF-8" standalone="no"?>
<!-- Created with Inkscape (http://www.inkscape.org/) -->

<svg
   xmlns:dc="http://purl.org/dc/elements/1.1/"
   xmlns:cc="http://creativecommons.org/ns#"
   xmlns:rdf="http://www.w3.org/1999/02/22-rdf-syntax-ns#"
   xmlns:svg="http://www.w3.org/2000/svg"
   xmlns="http://www.w3.org/2000/svg"
   xmlns:xlink="http://www.w3.org/1999/xlink"
   xmlns:sodipodi="http://sodipodi.sourceforge.net/DTD/sodipodi-0.dtd"
   xmlns:inkscape="http://www.inkscape.org/namespaces/inkscape"
   width="744.09448819"
   height="1052.3622047"
   id="svg2"
   version="1.1"
   inkscape:version="0.48.2 r9819"
   sodipodi:docname="icons.svg">
  <defs
     id="defs4">
    <linearGradient
       id="linearGradient4216">
      <stop
         style="stop-color:#ffffff;stop-opacity:1;"
         offset="0"
         id="stop4218" />
      <stop
         style="stop-color:#4b8efa;stop-opacity:0;"
         offset="1"
         id="stop4220" />
    </linearGradient>
    <inkscape:path-effect
       is_visible="true"
       id="path-effect3951"
       effect="spiro" />
    <inkscape:path-effect
       effect="spiro"
       id="path-effect3947"
       is_visible="true" />
    <linearGradient
       id="linearGradient3937">
      <stop
         style="stop-color:#fafff7;stop-opacity:1;"
         offset="0"
         id="stop3939" />
      <stop
         style="stop-color:#338000;stop-opacity:0;"
         offset="1"
         id="stop3941" />
    </linearGradient>
    <linearGradient
       inkscape:collect="always"
       xlink:href="#linearGradient3937"
       id="linearGradient3960"
       gradientUnits="userSpaceOnUse"
       x1="57.290485"
       y1="40.936329"
       x2="57.290485"
       y2="74.354149" />
    <linearGradient
       inkscape:collect="always"
       xlink:href="#linearGradient4216"
       id="linearGradient4339"
       gradientUnits="userSpaceOnUse"
       gradientTransform="matrix(1.0092961,0,0,0.53179237,-24.53575,-213.18195)"
       x1="147.07231"
       y1="514.57196"
       x2="147.07231"
       y2="537.88684" />
  </defs>
  <sodipodi:namedview
     id="base"
     pagecolor="#ffffff"
     bordercolor="#666666"
     borderopacity="1.0"
     inkscape:pageopacity="0.0"
     inkscape:pageshadow="2"
     inkscape:zoom="3.4886226"
     inkscape:cx="127.40266"
     inkscape:cy="950.97575"
     inkscape:document-units="px"
     inkscape:current-layer="layer1"
     showgrid="false"
     showguides="true"
     inkscape:guide-bbox="true"
     inkscape:window-width="1366"
     inkscape:window-height="706"
     inkscape:window-x="-8"
     inkscape:window-y="-8"
     inkscape:window-maximized="1" />
  <metadata
     id="metadata7">
    <rdf:RDF>
      <cc:Work
         rdf:about="">
        <dc:format>image/svg+xml</dc:format>
        <dc:type
           rdf:resource="http://purl.org/dc/dcmitype/StillImage" />
        <dc:title></dc:title>
      </cc:Work>
    </rdf:RDF>
  </metadata>
  <g
     inkscape:label="Layer 1"
     inkscape:groupmode="layer"
     id="layer1">
    <g
       id="g3955"
       transform="matrix(0.70919851,0,0,0.70919851,-203.0349,-318.56969)"
       inkscape:export-filename="D:\devel\fightland\fightland\fightland\media\images\arrow-back.png"
       inkscape:export-xdpi="90"
       inkscape:export-ydpi="90">
      <path
         transform="matrix(0.86990294,0,0,0.86990294,321.5618,474.8835)"
         d="m 76.42857,58.969322 c 0,10.158094 -8.234763,18.392857 -18.392857,18.392857 -10.158094,0 -18.392856,-8.234763 -18.392856,-18.392857 0,-10.158094 8.234762,-18.392856 18.392856,-18.392856 10.158094,0 18.392857,8.234762 18.392857,18.392856 z"
         sodipodi:ry="18.392857"
         sodipodi:rx="18.392857"
         sodipodi:cy="58.969322"
         sodipodi:cx="58.035713"
         id="path2985"
         style="color:#000000;fill:#338000;fill-opacity:1;fill-rule:nonzero;stroke:#255904;stroke-width:1.14955354;stroke-miterlimit:4;stroke-opacity:1;stroke-dasharray:none;marker:none;visibility:visible;display:inline;overflow:visible;enable-background:accumulate"
         sodipodi:type="arc" />
      <path
         inkscape:connector-curvature="0"
         d="m 372.27368,517.57643 -8.93403,8.02828 16.92113,0.45287 0.49405,-3.29365 -8.02827,0.49405 -0.45288,-5.68155 z m 7.9871,8.72818 -16.92113,0.45287 8.93403,8.02828 0.45288,-5.68155 8.02827,0.49405 -0.49405,-3.29365 z"
         style="fill:#ffffff;stroke:#ffffff;stroke-width:1.31746018px;stroke-linecap:butt;stroke-linejoin:miter;stroke-opacity:1"
         id="path3945" />
      <path
         sodipodi:type="arc"
         style="color:#000000;fill:url(#linearGradient3960);fill-opacity:1;fill-rule:nonzero;stroke:none;stroke-width:1.14955354;marker:none;visibility:visible;display:inline;overflow:visible;enable-background:accumulate"
         id="path3935"
         sodipodi:cx="58.035713"
         sodipodi:cy="58.969322"
         sodipodi:rx="18.392857"
         sodipodi:ry="18.392857"
         d="m 76.42857,58.969322 c 0,10.158094 -8.234763,18.392857 -18.392857,18.392857 -10.158094,0 -18.392856,-8.234763 -18.392856,-18.392857 0,-10.158094 8.234762,-18.392856 18.392856,-18.392856 10.158094,0 18.392857,8.234762 18.392857,18.392856 z"
         transform="matrix(0.688073,0,0,0.53473409,332.11443,488.54799)" />
    </g>
    <g
       id="g4374"
       transform="translate(4.8729834,-16.625473)"
       inkscape:export-filename="D:\devel\fightland\fightland\fightland\media\images\picasa.png"
       inkscape:export-xdpi="90"
       inkscape:export-ydpi="90">
      <rect
         ry="9.9879656"
         y="60.681568"
         x="76.962494"
         height="22.32604"
         width="91.379318"
         id="rect3973"
         style="color:#000000;fill:#4b8efa;fill-opacity:1;fill-rule:nonzero;stroke:#2466d0;stroke-width:1.20892632;stroke-linecap:butt;stroke-linejoin:miter;stroke-miterlimit:4;stroke-opacity:1;stroke-dasharray:none;stroke-dashoffset:0;marker:none;visibility:visible;display:inline;overflow:visible;enable-background:accumulate" />
      <g
         transform="matrix(0.1982147,0,0,0.1982147,17.002337,-32.45223)"
         id="g4062">
        <path
           sodipodi:type="arc"
           style="color:#000000;fill:#ffffff;fill-opacity:1;fill-rule:nonzero;stroke:none;stroke-width:1;marker:none;visibility:visible;display:inline;overflow:visible;enable-background:accumulate"
           id="path4060"
           sodipodi:cx="62.376919"
           sodipodi:cy="185.90384"
           sodipodi:rx="26.011429"
           sodipodi:ry="27.02158"
           d="m 88.388348,185.90384 c 0,14.92361 -11.645714,27.02158 -26.011429,27.02158 -14.365716,0 -26.011429,-12.09797 -26.011429,-27.02158 0,-14.92361 11.645713,-27.02158 26.011429,-27.02158 14.365715,0 26.011429,12.09797 26.011429,27.02158 z"
           transform="matrix(1.4528829,0,0,1.3985697,281.42088,266.18161)" />
        <g
           id="g4041"
           transform="matrix(0.97154304,0,0,0.97154304,137.09637,396.35536)">
          <path
             inkscape:connector-curvature="0"
             d="m 256.4675,101.38595 c -4.63287,-2.1025 -9.55425,-3.18125 -14.63725,-3.18125 -4.23188,0 -8.39263,0.815 -12.3955,2.315 0.938,0.85125 25.81987,23.435 27.03275,24.53625 0,-1.62875 0,-23.16875 0,-23.67"
             style="fill:#ec3e4b;fill-opacity:1;fill-rule:nonzero;stroke:none"
             id="path3001" />
          <path
             inkscape:connector-curvature="0"
             d="m 223.55925,164.02033 c 0,-1.38763 0,-28.88563 0,-30.52238 -1.186,1.07913 -14.25875,12.95988 -14.6665,13.33 2.84575,7.13525 8.03862,13.18562 14.6665,17.19238"
             style="fill:#387ac7;fill-opacity:1;fill-rule:nonzero;stroke:none"
             id="path3003" />
          <path
             inkscape:connector-curvature="0"
             d="m 206.33514,133.70245 c 0,3.04887 0.46045,6.1475 1.29004,9.22175 0.96144,-0.8755 30.84857,-28.0295 31.46382,-28.5895 -0.6,-0.545 -13.02875,-11.825 -13.43313,-12.19375 -11.91887,6.1175 -19.32073,18.1775 -19.32073,31.5615"
             style="fill:#9d6fbe;fill-opacity:1;fill-rule:nonzero;stroke:none"
             id="path3005" />
          <path
             inkscape:connector-curvature="0"
             d="m 227.28875,149.12932 c 0,0.73875 0,16.43063 0,16.93651 3.60838,1.62099 7.38425,2.62599 11.2695,2.98624 l 6.51075,0 c 12.26225,-1.1415 23.209,-8.70112 28.649,-19.92275 -1.28087,0 -45.6675,0 -46.42925,0"
             style="fill:#2eb447;fill-opacity:1;fill-rule:nonzero;stroke:none"
             id="path3007" />
          <path
             inkscape:connector-curvature="0"
             d="m 260.20912,103.4222 c 0,1.40875 0,41.211 0,41.96687 0.73,0 14.5425,0 15.1065,0 1.32225,-3.78125 2.01463,-7.71049 2.01463,-11.68662 0,-12.33525 -6.55913,-23.8515 -17.12113,-30.28025"
             style="fill:#f39b40;fill-opacity:1;fill-rule:nonzero;stroke:none"
             id="path3009" />
        </g>
      </g>
      <g
         transform="translate(-22.576512,-454.3365)"
         id="g4189">
        <g
           id="g4185">
          <path
             d="m 174.71875,530.6875 a 0.29549755,0.29549755 0 0 0 -0.0312,0.0312 0.29549755,0.29549755 0 0 0 -0.125,0.15625 0.29549755,0.29549755 0 0 0 0,0.0937 l 0,0.25 a 0.29549755,0.29549755 0 0 0 0.0312,0.15625 0.29549755,0.29549755 0 0 0 0.15625,0.125 0.29549755,0.29549755 0 0 0 0.0937,0 l 0.3125,0 0,1.3125 a 0.29549755,0.29549755 0 0 0 0.0312,0.15625 0.29549755,0.29549755 0 0 0 0.15625,0.125 0.29549755,0.29549755 0 0 0 0.0937,0 l 0.28125,0 a 0.29549755,0.29549755 0 0 0 0.15625,-0.0312 0.29549755,0.29549755 0 0 0 0.125,-0.15625 0.29549755,0.29549755 0 0 0 0,-0.0937 l 0,-1.3125 0.3125,0 a 0.29549755,0.29549755 0 0 0 0.0625,0 l 0,1.3125 a 0.29549755,0.29549755 0 0 0 0.0312,0.15625 0.29549755,0.29549755 0 0 0 0.15625,0.125 0.29549755,0.29549755 0 0 0 0.0937,0 l 0.3125,0 a 0.29549755,0.29549755 0 0 0 0.15625,-0.0312 0.29549755,0.29549755 0 0 0 0.125,-0.15625 0.29549755,0.29549755 0 0 0 0,-0.0937 l 0.0625,0.125 a 0.29549755,0.29549755 0 0 0 0.28125,0.15625 l 0.1875,0 a 0.29549755,0.29549755 0 0 0 0.15625,-0.0312 0.29549755,0.29549755 0 0 0 0.125,-0.15625 l 0.0625,-0.15625 0,0.0625 a 0.29549755,0.29549755 0 0 0 0.0312,0.15625 0.29549755,0.29549755 0 0 0 0.15625,0.125 0.29549755,0.29549755 0 0 0 0.0937,0 l 0.28125,0 a 0.29549755,0.29549755 0 0 0 0.15625,-0.0312 0.29549755,0.29549755 0 0 0 0.125,-0.15625 0.29549755,0.29549755 0 0 0 0,-0.0937 l 0,-1.84375 a 0.29549755,0.29549755 0 0 0 -0.0312,-0.15625 0.29549755,0.29549755 0 0 0 -0.15625,-0.125 0.29549755,0.29549755 0 0 0 -0.0937,0 l -0.4375,0 a 0.29549755,0.29549755 0 0 0 -0.15625,0.0312 0.29549755,0.29549755 0 0 0 -0.125,0.125 l -0.28125,0.71875 -0.3125,-0.71875 a 0.29549755,0.29549755 0 0 0 -0.0312,-0.0312 0.29549755,0.29549755 0 0 0 -0.15625,-0.125 0.29549755,0.29549755 0 0 0 -0.0937,0 l -0.4375,0 a 0.29549755,0.29549755 0 0 0 -0.15625,0.0312 0.29549755,0.29549755 0 0 0 -0.0312,0 0.29549755,0.29549755 0 0 0 -0.0625,-0.0312 0.29549755,0.29549755 0 0 0 -0.0937,0 l -1.46875,0 a 0.29549755,0.29549755 0 0 0 -0.125,0 z"
             id="path4183"
             style="fill:#ffffff;fill-opacity:1;fill-rule:nonzero;stroke:none"
             inkscape:original="M 174.84375 530.96875 L 174.84375 531.21875 L 175.4375 531.21875 L 175.4375 532.8125 L 175.71875 532.8125 L 175.71875 531.21875 L 176.3125 531.21875 L 176.3125 530.96875 L 174.84375 530.96875 z M 176.65625 530.96875 L 176.65625 532.8125 L 176.96875 532.8125 L 176.96875 531.28125 L 177.59375 532.8125 L 177.78125 532.8125 L 178.375 531.28125 L 178.40625 531.28125 L 178.40625 532.8125 L 178.6875 532.8125 L 178.6875 530.96875 L 178.25 530.96875 L 177.6875 532.375 L 177.09375 530.96875 L 176.65625 530.96875 z "
             inkscape:radius="0.295468"
             sodipodi:type="inkscape:offset" />
          <path
             inkscape:connector-curvature="0"
             d="m 178.39936,531.28515 -0.01,0 -0.61898,1.51943 -0.17492,0 -0.62148,-1.51943 -0.008,0 0,1.51943 -0.29571,0 0,-1.84055 0.43755,0 0.58089,1.41042 0.56735,-1.41042 0.43755,0 0,1.84055 -0.2942,0 0,-1.51943 z m -2.96259,-0.0521 -0.59292,0 0,-0.26904 1.47002,0 0,0.26904 -0.58139,0 0,1.57151 -0.29571,0 0,-1.57151"
             style="fill:#6d7579;fill-opacity:1;fill-rule:nonzero;stroke:none"
             id="path2999" />
        </g>
        <g
           id="g4145">
          <path
             d="m 125.59375,519 c -0.0179,0.005 -0.0135,0.0252 -0.0312,0.0312 -0.0174,0.007 -0.0142,-0.008 -0.0312,0 -0.0171,0.008 -0.0145,-0.008 -0.0312,0 -0.0168,0.008 0.0164,0.0222 0,0.0312 -0.0164,0.009 -0.0153,-0.01 -0.0312,0 -0.016,0.01 -0.0157,-0.0104 -0.0312,0 -0.0155,0.0104 0.015,0.0201 0,0.0312 -0.015,0.0111 -0.0167,-0.0118 -0.0312,0 -0.0145,0.0118 0.014,0.0189 0,0.0312 -0.014,0.0124 -0.0178,-0.013 -0.0312,0 -0.0135,0.013 0.0129,0.0177 0,0.0312 -0.0129,0.0136 -0.019,-0.0141 -0.0312,0 -0.0123,0.0141 0.0116,0.0166 0,0.0312 -0.0116,0.0146 -0.0203,-0.0151 -0.0312,0 -0.011,0.0151 0.0103,0.0156 0,0.0312 -0.0103,0.0156 0.01,0.0152 0,0.0312 -0.01,0.0161 -0.0224,-0.0165 -0.0312,0 -0.009,0.0165 0.008,0.0144 0,0.0312 -0.008,0.0168 0.007,0.0141 0,0.0312 -0.007,0.0172 -0.0246,-0.0175 -0.0312,0 -0.007,0.0175 0.006,0.0135 0,0.0312 -0.006,0.0178 0.005,0.0132 0,0.0312 -0.004,0.0182 0.003,0.0129 0,0.0312 -0.003,0.0184 -0.0286,0.0127 -0.0312,0.0312 -0.002,0.0186 0.001,0.0126 0,0.0312 -0.001,0.0187 2.1e-4,0.0126 0,0.0312 -2.1e-4,0.0187 -6.1e-4,0.0126 0,0.0312 l 0,13.09375 c -2.9e-4,0.0212 -7.7e-4,0.01 0,0.0312 7.7e-4,0.0212 -0.002,0.0101 0,0.0312 0.002,0.0212 -0.003,0.0102 0,0.0312 0.003,0.021 0.0273,-0.0209 0.0312,0 0.004,0.0209 -0.005,0.0106 0,0.0312 0.005,0.0207 -0.006,0.0109 0,0.0312 0.006,0.0204 -0.007,0.0112 0,0.0312 0.007,0.0201 -0.008,0.0116 0,0.0312 0.008,0.0197 0.0223,-0.0193 0.0312,0 0.009,0.0193 -0.01,0.0125 0,0.0312 0.01,0.0188 0.0204,0.013 0.0312,0.0312 0.0117,0.0177 -0.0126,0.0141 0,0.0312 0.0126,0.0171 0.0178,0.0148 0.0312,0.0312 0.0143,0.0158 0.0162,0.0162 0.0312,0.0312 0.015,0.015 0.0155,0.017 0.0312,0.0312 0.0165,0.0135 0.0142,0.0186 0.0312,0.0312 0.0171,0.0126 0.0135,-0.0117 0.0312,0 0.0183,0.0109 0.0125,0.0213 0.0312,0.0312 0.0188,0.01 0.012,-0.009 0.0312,0 0.0193,0.009 -0.0197,0.0232 0,0.0312 0.0197,0.008 0.0112,-0.007 0.0312,0 0.0201,0.007 0.0109,-0.006 0.0312,0 0.0204,0.006 0.0106,-0.005 0.0312,0 0.0207,0.005 0.0104,-0.004 0.0312,0 0.0209,0.004 -0.0211,0.0284 0,0.0312 0.0211,0.003 0.0101,-0.002 0.0312,0 0.0212,0.002 0.01,-7.7e-4 0.0312,0 0.0212,7.7e-4 0.01,2.9e-4 0.0312,0 l 2.125,0 c 0.0212,2.9e-4 0.01,7.7e-4 0.0312,0 0.0212,-7.7e-4 0.0101,0.002 0.0312,0 0.0212,-0.002 0.0102,0.003 0.0312,0 0.0211,-0.003 -0.0209,-0.0273 0,-0.0312 0.0209,-0.004 0.0106,0.005 0.0312,0 0.0207,-0.005 0.0109,0.006 0.0312,0 0.0204,-0.006 0.0112,0.007 0.0312,0 0.0201,-0.007 0.0116,0.008 0.0312,0 0.0197,-0.008 -0.0193,-0.0223 0,-0.0312 0.0193,-0.009 0.0125,0.01 0.0312,0 0.0188,-0.01 0.013,-0.0204 0.0312,-0.0312 0.0177,-0.0117 0.0142,0.0126 0.0312,0 0.0171,-0.0126 0.0148,-0.0178 0.0312,-0.0312 0.0158,-0.0143 0.0162,-0.0162 0.0312,-0.0312 0.015,-0.015 0.017,-0.0155 0.0312,-0.0312 0.0135,-0.0164 0.0186,-0.0141 0.0312,-0.0312 0.0126,-0.0171 -0.0117,-0.0135 0,-0.0312 0.0109,-0.0183 0.0213,-0.0125 0.0312,-0.0312 0.01,-0.0188 -0.009,-0.012 0,-0.0312 0.009,-0.0193 0.0232,0.0197 0.0312,0 0.008,-0.0197 -0.007,-0.0112 0,-0.0312 0.007,-0.0201 -0.006,-0.0109 0,-0.0312 0.006,-0.0204 -0.005,-0.0106 0,-0.0312 0.005,-0.0207 -0.004,-0.0104 0,-0.0312 0.004,-0.0209 0.0284,0.021 0.0312,0 0.003,-0.021 -0.002,-0.0101 0,-0.0312 0.002,-0.0212 -7.7e-4,-0.01 0,-0.0312 7.7e-4,-0.0212 2.9e-4,-0.01 0,-0.0312 l 0,-4.21875 a 0.38232302,0.38232302 0 0 1 0.375,-0.375 l 0.65625,0 c 1.47599,0 2.71289,-0.42482 3.59375,-1.21875 0.8769,-0.79036 1.375,-1.95733 1.375,-3.3125 0,-1.39715 -0.49781,-2.60635 -1.40625,-3.375 -0.91593,-0.77499 -2.20025,-1.125 -3.8125,-1.125 l -3.4375,0 a 0.38232302,0.38232302 0 0 1 -0.0312,0 c -0.0222,-0.002 -0.009,0.001 -0.0312,0 -0.0223,-0.001 -0.009,0 -0.0312,0 -0.0224,0 -0.009,-0.001 -0.0312,0 -0.0223,0.001 -0.009,-0.002 -0.0312,0 z m 3.03125,2.96875 a 0.38232302,0.38232302 0 0 1 0.0312,0 0.38232302,0.38232302 0 0 1 0.0312,0 0.38232302,0.38232302 0 0 1 0.0937,0 l 0.4375,0 c 0.42344,0 0.95609,0.10322 1.375,0.375 0.17995,0.11675 0.34784,0.23636 0.46875,0.4375 0.12091,0.20114 0.15625,0.45087 0.15625,0.71875 0,0.2981 -0.0292,0.542 -0.125,0.75 -0.0958,0.208 -0.25836,0.35948 -0.40625,0.46875 -0.35474,0.26211 -0.80673,0.34375 -1.25,0.34375 l -0.65625,0 a 0.38232302,0.38232302 0 0 1 -0.375,-0.375 l 0,-2.34375 a 0.38232302,0.38232302 0 0 1 0.21875,-0.375 z"
             id="path4143"
             style="fill:#ffffff;fill-opacity:1;fill-rule:nonzero;stroke:none"
             inkscape:original="M 125.59375 519 C 125.5758 519.00526 125.5802 519.02521 125.5625 519.03125 C 125.54508 519.03806 125.54835 519.02368 125.53125 519.03125 C 125.51415 519.03882 125.51675 519.02293 125.5 519.03125 C 125.48325 519.03957 125.51637 519.05346 125.5 519.0625 C 125.48363 519.07154 125.48471 519.05275 125.46875 519.0625 C 125.45279 519.07225 125.45301 519.05205 125.4375 519.0625 C 125.42199 519.07295 125.45254 519.08263 125.4375 519.09375 C 125.42246 519.10487 125.42079 519.08198 125.40625 519.09375 C 125.39171 519.10552 125.42026 519.1126 125.40625 519.125 C 125.39224 519.1374 125.38845 519.112 125.375 519.125 C 125.36155 519.138 125.38786 519.14267 125.375 519.15625 C 125.36214 519.16983 125.35601 519.14212 125.34375 519.15625 C 125.33149 519.17038 125.35537 519.17285 125.34375 519.1875 C 125.33213 519.20215 125.32347 519.17235 125.3125 519.1875 C 125.30153 519.20265 125.32279 519.20313 125.3125 519.21875 C 125.30221 519.23437 125.32209 519.23394 125.3125 519.25 C 125.30291 519.26606 125.29013 519.23354 125.28125 519.25 C 125.27237 519.26646 125.2894 519.26441 125.28125 519.28125 C 125.2731 519.29809 125.28865 519.29532 125.28125 519.3125 C 125.27385 519.32968 125.25664 519.29501 125.25 519.3125 C 125.24336 519.32999 125.25586 519.32599 125.25 519.34375 C 125.24414 519.36151 125.25508 519.357 125.25 519.375 C 125.24572 519.39321 125.25348 519.38787 125.25 519.40625 C 125.24652 519.42463 125.22142 519.41899 125.21875 519.4375 C 125.2169 519.45611 125.21978 519.45007 125.21875 519.46875 C 125.21772 519.48743 125.21896 519.4813 125.21875 519.5 C 125.21854 519.5187 125.21814 519.51256 125.21875 519.53125 L 125.21875 532.625 C 125.21846 532.64624 125.21798 532.63502 125.21875 532.65625 C 125.21952 532.67748 125.21692 532.66633 125.21875 532.6875 C 125.22058 532.70867 125.21586 532.6977 125.21875 532.71875 C 125.22164 532.7398 125.24607 532.69787 125.25 532.71875 C 125.25393 532.73963 125.24503 532.72934 125.25 532.75 C 125.25497 532.77066 125.244 532.76087 125.25 532.78125 C 125.256 532.80163 125.24299 532.79244 125.25 532.8125 C 125.25701 532.83256 125.242 532.82407 125.25 532.84375 C 125.258 532.86343 125.27228 532.82449 125.28125 532.84375 C 125.29022 532.86301 125.27133 532.85621 125.28125 532.875 C 125.29117 532.89379 125.30165 532.88798 125.3125 532.90625 C 125.32424 532.92396 125.29989 532.9204 125.3125 532.9375 C 125.32511 532.9546 125.3303 532.9523 125.34375 532.96875 C 125.35801 532.98451 125.35998 532.98498 125.375 533 C 125.39002 533.01502 125.39049 533.01699 125.40625 533.03125 C 125.4227 533.0447 125.4204 533.04989 125.4375 533.0625 C 125.4546 533.07511 125.45104 533.05076 125.46875 533.0625 C 125.48702 533.07335 125.48121 533.08383 125.5 533.09375 C 125.51879 533.10367 125.51199 533.08478 125.53125 533.09375 C 125.55051 533.10272 125.51157 533.117 125.53125 533.125 C 125.55093 533.133 125.54244 533.11799 125.5625 533.125 C 125.58256 533.13201 125.57337 533.119 125.59375 533.125 C 125.61413 533.131 125.60434 533.12003 125.625 533.125 C 125.64566 533.12997 125.63537 533.12107 125.65625 533.125 C 125.67713 533.12893 125.6352 533.15336 125.65625 533.15625 C 125.6773 533.15914 125.66633 533.15442 125.6875 533.15625 C 125.70867 533.15808 125.69752 533.15548 125.71875 533.15625 C 125.73998 533.15702 125.72876 533.15654 125.75 533.15625 L 127.875 533.15625 C 127.89624 533.15654 127.88502 533.15702 127.90625 533.15625 C 127.92748 533.15548 127.91633 533.15808 127.9375 533.15625 C 127.95867 533.15442 127.9477 533.15914 127.96875 533.15625 C 127.9898 533.15336 127.94787 533.12893 127.96875 533.125 C 127.98963 533.12107 127.97934 533.12997 128 533.125 C 128.02066 533.12003 128.01087 533.131 128.03125 533.125 C 128.05163 533.119 128.04244 533.13201 128.0625 533.125 C 128.08256 533.11799 128.07407 533.133 128.09375 533.125 C 128.11343 533.117 128.07449 533.10272 128.09375 533.09375 C 128.11301 533.08478 128.10621 533.10367 128.125 533.09375 C 128.14379 533.08383 128.13798 533.07335 128.15625 533.0625 C 128.17396 533.05076 128.1704 533.07511 128.1875 533.0625 C 128.2046 533.04989 128.2023 533.0447 128.21875 533.03125 C 128.23451 533.01699 128.23498 533.01502 128.25 533 C 128.26502 532.98498 128.26699 532.98451 128.28125 532.96875 C 128.2947 532.9523 128.29989 532.9546 128.3125 532.9375 C 128.32511 532.9204 128.30076 532.92396 128.3125 532.90625 C 128.32335 532.88798 128.33383 532.89379 128.34375 532.875 C 128.35367 532.85621 128.33478 532.86301 128.34375 532.84375 C 128.35272 532.82449 128.367 532.86343 128.375 532.84375 C 128.383 532.82407 128.36799 532.83256 128.375 532.8125 C 128.38201 532.79244 128.369 532.80163 128.375 532.78125 C 128.381 532.76087 128.37003 532.77066 128.375 532.75 C 128.37997 532.72934 128.37107 532.73963 128.375 532.71875 C 128.37893 532.69787 128.40336 532.7398 128.40625 532.71875 C 128.40914 532.6977 128.40442 532.70867 128.40625 532.6875 C 128.40808 532.66633 128.40548 532.67748 128.40625 532.65625 C 128.40702 532.63502 128.40654 532.64624 128.40625 532.625 L 128.40625 528.40625 A 0.38232302 0.38232302 0 0 1 128.78125 528.03125 L 129.4375 528.03125 C 130.91349 528.03125 132.15039 527.60643 133.03125 526.8125 C 133.90815 526.02214 134.40625 524.85517 134.40625 523.5 C 134.40625 522.10285 133.90844 520.89365 133 520.125 C 132.08407 519.35001 130.79975 519 129.1875 519 L 125.75 519 A 0.38232302 0.38232302 0 0 1 125.71875 519 C 125.69653 518.99766 125.70982 519.00117 125.6875 519 C 125.66518 518.99883 125.6786 519 125.65625 519 C 125.6339 519 125.64732 518.99883 125.625 519 C 125.60268 519.00117 125.61597 518.99766 125.59375 519 z M 128.625 521.96875 A 0.38232302 0.38232302 0 0 1 128.65625 521.96875 A 0.38232302 0.38232302 0 0 1 128.6875 521.96875 A 0.38232302 0.38232302 0 0 1 128.78125 521.96875 L 129.21875 521.96875 C 129.64219 521.96875 130.17484 522.07197 130.59375 522.34375 C 130.7737 522.4605 130.94159 522.58011 131.0625 522.78125 C 131.18341 522.98239 131.21875 523.23212 131.21875 523.5 C 131.21875 523.7981 131.18958 524.042 131.09375 524.25 C 130.99792 524.458 130.83539 524.60948 130.6875 524.71875 C 130.33276 524.98086 129.88077 525.0625 129.4375 525.0625 L 128.78125 525.0625 A 0.38232302 0.38232302 0 0 1 128.40625 524.6875 L 128.40625 522.34375 A 0.38232302 0.38232302 0 0 1 128.625 521.96875 z "
             inkscape:radius="0"
             sodipodi:type="inkscape:offset" />
          <path
             inkscape:connector-curvature="0"
             d="m 129.44922,525.58863 c 0,0 -1.31544,0 -1.5709,0 0,-0.27516 0,-3.87226 0,-4.14592 0.24804,0 1.32797,0 1.32797,0 1.01804,0 2.53065,0.5443 2.53065,2.04539 0,1.55021 -1.23204,2.10053 -2.28772,2.10053 l 0,0 z m -0.27721,-6.0635 -3.43105,0 0,13.0913 2.13736,0 c 0,0 0,-4.82363 0,-5.11102 0.25546,0 1.55386,0 1.55386,0 2.77719,0 4.43621,-1.49528 4.43621,-3.99926 0,-2.60423 -1.62459,-3.98102 -4.69638,-3.98102"
             style="fill:#6d7579;fill-opacity:1;fill-rule:nonzero;stroke:none"
             id="path3011" />
        </g>
        <g
           id="g4153">
          <path
             d="m 144.375,522.3125 c -3.1009,0 -5.34375,2.30184 -5.34375,5.46875 0,3.08872 2.31572,5.5 5.34375,5.5 0.93462,0 1.70042,-0.15153 2.34375,-0.4375 l 0.0625,-0.0312 0.0312,0 a 0.43594359,0.43594359 0 0 0 0.3125,-0.4375 l -0.15625,-1.90625 A 0.43594359,0.43594359 0 0 0 146.3125,530.125 l -0.21875,0.125 a 0.43594359,0.43594359 0 0 0 -0.0312,0 c -0.38172,0.24857 -0.98903,0.4375 -1.5,0.4375 -0.90346,0 -1.49361,-0.34255 -1.90625,-0.875 -0.41264,-0.53245 -0.625,-1.27915 -0.625,-2.03125 0,-0.74634 0.21773,-1.49472 0.625,-2.03125 0.40727,-0.53653 0.9752,-0.875 1.78125,-0.875 0.48097,0 1.09353,0.14088 1.65625,0.375 a 0.43594359,0.43594359 0 0 0 0.0312,0 l 0.1875,0.0625 a 0.43594359,0.43594359 0 0 0 0.5625,-0.375 l 0.1875,-1.75 A 0.43594359,0.43594359 0 0 0 146.75,522.75 l -0.0625,-0.0312 c -0.008,-0.003 -0.023,0.003 -0.0312,0 -0.62441,-0.24784 -1.5292,-0.40625 -2.28125,-0.40625 z"
             id="path4151"
             style="fill:#ffffff;fill-opacity:1;fill-rule:nonzero;stroke:none"
             inkscape:original="M 144.375 522.75 C 141.48108 522.75 139.46875 524.81124 139.46875 527.78125 C 139.46875 530.65727 141.5738 532.84375 144.375 532.84375 C 145.29119 532.84375 146.01336 532.70569 146.59375 532.4375 L 146.6875 532.40625 L 146.53125 530.5 L 146.3125 530.625 C 145.84138 530.93178 145.16644 531.125 144.5625 531.125 C 142.51711 531.125 141.59375 529.44658 141.59375 527.78125 C 141.59375 526.11887 142.56452 524.4375 144.4375 524.4375 C 144.99834 524.4375 145.64406 524.59165 146.25 524.84375 L 146.4375 524.90625 L 146.625 523.15625 L 146.53125 523.125 C 146.00199 522.90999 145.07016 522.75 144.375 522.75 z "
             inkscape:radius="0.4359"
             sodipodi:type="inkscape:offset" />
          <path
             inkscape:connector-curvature="0"
             d="m 146.32667,530.63299 c -0.47112,0.30678 -1.16378,0.50571 -1.76772,0.50571 -2.04539,0 -2.96108,-1.68057 -2.96108,-3.3459 0,-1.66238 0.97984,-3.3459 2.85282,-3.3459 0.56084,0 1.20338,0.13883 1.80932,0.39093 l 0.18996,0.0787 0.17843,-1.74668 -0.10526,-0.0431 c -0.52926,-0.21501 -1.45147,-0.3774 -2.14663,-0.3774 -2.89392,0 -4.91525,2.07345 -4.91525,5.04346 0,2.87602 2.11405,5.04426 4.91525,5.04426 0.91619,0 1.64443,-0.13117 2.22482,-0.39936 l 0.0977,-0.0446 -0.15888,-1.90065 -0.21351,0.14059"
             style="fill:#6d7579;fill-opacity:1;fill-rule:nonzero;stroke:none"
             id="path3015" />
        </g>
        <g
           id="g4161">
          <path
             d="m 152.03125,522.3125 c -1.1631,0 -2.28838,0.34553 -3.34375,0.96875 -0.008,0.005 -0.0228,-0.005 -0.0312,0 l -0.0312,0.0312 a 0.43582577,0.43582577 0 0 0 -0.25,0.40625 l 0.0937,1.875 a 0.43582577,0.43582577 0 0 0 0.6875,0.3125 l 0.25,-0.1875 a 0.43582577,0.43582577 0 0 0 0.0312,0 c 0.58429,-0.49148 1.48724,-0.84375 2.3125,-0.84375 0.68733,0 1.0767,0.14223 1.3125,0.375 0.17242,0.17021 0.28065,0.47466 0.34375,0.875 -0.50116,-0.009 -1.15625,-0.0312 -1.15625,-0.0312 -0.89546,0 -2.08413,0.17469 -3.09375,0.71875 -1.00962,0.54406 -1.84375,1.5327 -1.84375,2.96875 0,1.08052 0.35631,1.98564 1.0625,2.59375 0.70619,0.60811 1.71538,0.90625 2.9375,0.90625 1.07895,0 1.78086,-0.37457 2.34375,-0.78125 l 0,0.125 a 0.43582577,0.43582577 0 0 0 0.4375,0.4375 l 1.9375,0 a 0.43582577,0.43582577 0 0 0 0.4375,-0.46875 l -0.0937,-1.96875 0,-0.0312 0,-3.8125 c 0,-1.43664 -0.31492,-2.57083 -1.0625,-3.34375 -0.74758,-0.77292 -1.87782,-1.125 -3.28125,-1.125 z m 0.9375,6.25 c 0,0 0.26923,0.0235 0.5,0.0312 l 0,0.25 c 0,0.61535 -0.17495,1.04012 -0.5,1.34375 -0.32505,0.30363 -0.82722,0.5 -1.5,0.5 -0.22644,0 -0.55023,-0.0909 -0.78125,-0.25 -0.23102,-0.15909 -0.375,-0.33839 -0.375,-0.65625 0,-0.26439 0.0682,-0.43816 0.21875,-0.59375 0.15054,-0.15559 0.40087,-0.27521 0.6875,-0.375 0.57326,-0.19957 1.31265,-0.25 1.75,-0.25 z"
             id="path4159"
             style="fill:#ffffff;fill-opacity:1;fill-rule:nonzero;stroke:none"
             inkscape:original="M 152.03125 522.75 C 150.94114 522.75 149.8779 523.05882 148.875 523.65625 L 148.8125 523.6875 L 148.90625 525.5625 L 149.15625 525.375 C 149.82836 524.80965 150.80975 524.4375 151.75 524.4375 C 153.24407 524.4375 153.86265 525.05164 153.90625 526.5625 C 153.61556 526.5565 152.25 526.53125 152.25 526.53125 C 150.58101 526.53125 147.75 527.23175 147.75 529.78125 C 147.75 531.75782 149.00498 532.84375 151.3125 532.84375 C 152.78402 532.84375 153.6522 532.12735 154.09375 531.625 L 154.09375 532.625 L 156.03125 532.625 L 155.9375 530.625 L 155.9375 526.78125 C 155.9375 524.03934 154.69762 522.75 152.03125 522.75 z M 152.96875 528.125 C 152.96875 528.125 153.74537 528.15105 153.90625 528.15625 L 153.90625 528.84375 C 153.90625 530.26395 152.97986 531.125 151.46875 531.125 C 150.82922 531.125 149.875 530.71413 149.875 529.78125 C 149.875 528.29935 152.03953 528.125 152.96875 528.125 z "
             inkscape:radius="0.43578219"
             sodipodi:type="inkscape:offset" />
          <path
             inkscape:connector-curvature="0"
             d="m 151.46446,531.1387 c -0.63953,0 -1.5868,-0.43464 -1.5868,-1.36752 0,-1.4819 2.16067,-1.64263 3.08989,-1.64263 0,0 0.78588,0.0263 0.94676,0.0315 0,0.19892 0,0.67681 0,0.67681 0,1.4202 -0.93874,2.30181 -2.44985,2.30181 l 0,0 z m 4.4772,-4.3714 c 0,-2.74191 -1.24197,-4.01796 -3.90834,-4.01796 -1.09011,0 -2.15265,0.30272 -3.15555,0.90015 l -0.0797,0.0481 0.11528,1.86045 0.23155,-0.19496 c 0.67211,-0.56535 1.6735,-0.91619 2.61375,-0.91619 1.49407,0 2.09401,0.61647 2.13761,2.12733 -0.29069,-0.006 -1.66147,-0.0338 -1.66147,-0.0338 -1.66899,0 -4.49425,0.68128 -4.49425,3.23078 0,1.97657 1.27104,3.06588 3.57856,3.06588 1.47152,0 2.33659,-0.70734 2.77814,-1.20969 0,0.3565 0,0.98906 0,0.98906 l 1.9231,0 -0.0787,-1.98444 0,-3.86469"
             style="fill:#6d7579;fill-opacity:1;fill-rule:nonzero;stroke:none"
             id="path3017" />
        </g>
        <g
           id="g4169">
          <path
             d="m 160.78125,522.3125 c -1.14309,0 -2.12363,0.32874 -2.8125,0.9375 -0.68887,0.60876 -1.0625,1.4963 -1.0625,2.53125 0,0.89331 0.40653,1.58782 0.9375,2.0625 0.53097,0.47468 1.18056,0.75476 1.75,1.03125 0.42962,0.20867 0.79646,0.40637 1.03125,0.59375 0.23479,0.18738 0.3125,0.32529 0.3125,0.5 0,0.39518 -0.13832,0.48507 -0.40625,0.59375 -0.26793,0.10868 -0.63092,0.125 -0.75,0.125 -0.30954,0 -1.25154,-0.19956 -1.8125,-0.5625 a 0.43150263,0.43150263 0 0 0 -0.0312,0 L 157.71875,530 a 0.43150263,0.43150263 0 0 0 -0.65625,0.34375 l -0.125,1.875 a 0.43150263,0.43150263 0 0 0 0.1875,0.375 l 0.0937,0.0625 a 0.43150263,0.43150263 0 0 0 0.0312,0.0312 c 0.98844,0.52823 2.08698,0.59375 2.875,0.59375 0.92934,0 1.85994,-0.26863 2.59375,-0.84375 0.73381,-0.57512 1.25,-1.48175 1.25,-2.65625 0,-0.99179 -0.41968,-1.71961 -0.96875,-2.21875 -0.54907,-0.49914 -1.20459,-0.81491 -1.75,-1.0625 -0.42844,-0.19429 -0.80228,-0.35426 -1.03125,-0.53125 -0.22897,-0.17699 -0.3125,-0.29949 -0.3125,-0.53125 0,-0.20202 0.0537,-0.29792 0.25,-0.40625 0.19629,-0.10833 0.52468,-0.15625 0.8125,-0.15625 0.0897,0 0.45749,0.0421 0.78125,0.125 0.30749,0.0788 0.60834,0.18918 0.71875,0.25 l 0.0312,0.0312 0.15625,0.0937 a 0.43150263,0.43150263 0 0 0 0.6875,-0.3125 l 0.1875,-1.875 A 0.43150263,0.43150263 0 0 0 163.1875,522.75 l -0.0937,-0.0312 c -0.009,-0.003 -0.0224,0.003 -0.0312,0 -0.63634,-0.18829 -1.3701,-0.40625 -2.28125,-0.40625 z"
             id="path4167"
             style="fill:#ffffff;fill-opacity:1;fill-rule:nonzero;stroke:none"
             inkscape:original="M 160.78125 522.75 C 158.65216 522.75 157.34375 523.91278 157.34375 525.78125 C 157.34375 527.32649 158.64053 527.94612 159.78125 528.5 C 160.64782 528.9209 161.375 529.30446 161.375 529.96875 C 161.375 531.09705 160.0494 531.125 159.78125 531.125 C 159.34521 531.125 158.38835 530.93323 157.71875 530.5 L 157.5 530.375 L 157.375 532.25 L 157.46875 532.3125 C 158.34985 532.78337 159.35967 532.84375 160.125 532.84375 C 161.82356 532.84375 163.53125 531.89822 163.53125 529.78125 C 163.53125 528.02295 162.15411 527.40179 161.0625 526.90625 C 160.20595 526.51782 159.46875 526.18478 159.46875 525.4375 C 159.46875 524.71226 160.2786 524.4375 160.96875 524.4375 C 161.33563 524.4375 162.34887 524.6767 162.71875 524.90625 L 162.90625 525.03125 L 163.09375 523.15625 L 162.96875 523.125 C 162.33373 522.93655 161.64281 522.75 160.78125 522.75 z "
             inkscape:radius="0.43145949"
             sodipodi:type="inkscape:offset" />
          <path
             inkscape:connector-curvature="0"
             d="m 161.07343,526.90082 c -0.85655,-0.38843 -1.59732,-0.72379 -1.59732,-1.47107 0,-0.72524 0.80693,-0.98285 1.49708,-0.98285 0.36688,0 1.36226,0.22353 1.73214,0.45308 l 0.2085,0.12931 0.18194,-1.87097 -0.11879,-0.0366 c -0.63502,-0.18845 -1.32567,-0.37239 -2.18723,-0.37239 -2.12909,0 -3.45075,1.16027 -3.45075,3.02874 0,1.54524 1.2936,2.17329 2.43432,2.72717 0.86657,0.4209 1.61486,0.78447 1.61486,1.44876 0,1.1283 -1.33769,1.18469 -1.60584,1.18469 -0.43604,0 -1.39182,-0.20129 -2.06142,-0.63452 l -0.21903,-0.14234 -0.11277,1.89809 0.0852,0.0452 c 0.8811,0.47087 1.87197,0.53192 2.6373,0.53192 1.69856,0 3.41266,-0.94892 3.41266,-3.06589 0,-1.7583 -1.35925,-2.37482 -2.45086,-2.87036"
             style="fill:#6d7579;fill-opacity:1;fill-rule:nonzero;stroke:none"
             id="path3019" />
        </g>
        <g
           id="g4177">
          <path
             d="m 168.96875,522.3125 c -1.16091,0 -2.29126,0.31774 -3.34375,0.9375 l -0.0312,0.0312 -0.0312,0 a 0.44324634,0.44324634 0 0 0 -0.25,0.4375 l 0.0937,1.875 a 0.44324634,0.44324634 0 0 0 0.71875,0.3125 l 0.25,-0.1875 c 0.58063,-0.4895 1.48976,-0.84375 2.3125,-0.84375 0.67388,0 1.07407,0.13958 1.3125,0.375 0.17434,0.17214 0.27955,0.47985 0.34375,0.875 -0.50122,-0.009 -1.15625,-0.0312 -1.15625,-0.0312 -0.89673,0 -2.0826,0.17383 -3.09375,0.71875 -1.01115,0.54492 -1.84375,1.52998 -1.84375,2.96875 0,1.08209 0.35454,1.98411 1.0625,2.59375 0.70796,0.60964 1.71422,0.90625 2.9375,0.90625 1.06487,0 1.78085,-0.34974 2.34375,-0.75 l 0,0.0937 a 0.44324634,0.44324634 0 0 0 0.4375,0.4375 l 1.9375,0 a 0.44324634,0.44324634 0 0 0 0.4375,-0.46875 l -0.0937,-1.96875 0,-0.0312 0,-3.8125 c 0,-1.43775 -0.31315,-2.56899 -1.0625,-3.34375 -0.74935,-0.77476 -1.87663,-1.125 -3.28125,-1.125 z m 0.9375,6.25 c 0,0 0.26935,0.0235 0.5,0.0312 l 0,0.25 c 0,0.61368 -0.20775,1.0416 -0.53125,1.34375 -0.3235,0.30215 -0.79765,0.5 -1.46875,0.5 -0.2255,0 -0.5519,-0.092 -0.78125,-0.25 -0.22935,-0.158 -0.375,-0.34077 -0.375,-0.65625 0,-0.26256 0.0693,-0.40807 0.21875,-0.5625 0.14944,-0.15443 0.40154,-0.30671 0.6875,-0.40625 0.57191,-0.19908 1.31337,-0.25 1.75,-0.25 z"
             id="path4175"
             style="fill:#ffffff;fill-opacity:1;fill-rule:nonzero;stroke:none"
             inkscape:original="M 168.96875 522.75 C 167.87814 522.75 166.81439 523.05882 165.8125 523.65625 L 165.75 523.6875 L 165.84375 525.5625 L 166.09375 525.375 C 166.76435 524.80965 167.74775 524.4375 168.6875 524.4375 C 170.16203 524.4375 170.79864 525.07018 170.84375 526.5625 C 170.55155 526.5565 169.1875 526.53125 169.1875 526.53125 C 167.51801 526.53125 164.6875 527.23175 164.6875 529.78125 C 164.6875 531.75782 165.94248 532.84375 168.25 532.84375 C 169.72052 532.84375 170.5897 532.12639 171.03125 531.625 L 171.03125 532.625 L 172.96875 532.625 L 172.875 530.625 L 172.875 526.78125 C 172.875 524.03935 171.63512 522.75 168.96875 522.75 z M 169.90625 528.125 C 169.90625 528.125 170.68186 528.15105 170.84375 528.15625 L 170.84375 528.84375 C 170.84375 530.26395 169.91686 531.125 168.40625 531.125 C 167.76572 531.125 166.8125 530.71413 166.8125 529.78125 C 166.8125 528.29935 168.97753 528.125 169.90625 528.125 z "
             inkscape:radius="0.44320202"
             sodipodi:type="inkscape:offset" />
          <path
             inkscape:connector-curvature="0"
             d="m 168.40997,531.1387 c -0.64053,0 -1.58779,-0.43464 -1.58779,-1.36752 0,-1.4819 2.16066,-1.64263 3.08938,-1.64263 0,0 0.78488,0.0263 0.94677,0.0315 0,0.19892 0,0.67681 0,0.67681 0,1.4202 -0.93775,2.30181 -2.44836,2.30181 l 0,0 z m 4.55439,1.47773 -0.0787,-1.98445 0,-3.86469 c 0,-2.7419 -1.24147,-4.01795 -3.90784,-4.01795 -1.09061,0 -2.15315,0.30272 -3.15504,0.90015 l -0.0797,0.0481 0.11427,1.86045 0.23256,-0.19496 c 0.6706,-0.56535 1.67249,-0.91619 2.61224,-0.91619 1.47453,0 2.0925,0.63501 2.13761,2.12733 -0.2922,-0.006 -1.66097,-0.0338 -1.66097,-0.0338 -1.66949,0 -4.49374,0.68128 -4.49374,3.23078 0,1.97657 1.27053,3.06588 3.57805,3.06588 1.47052,0 2.33709,-0.7083 2.77864,-1.20969 0,0.3561 0,0.98906 0,0.98906 l 1.9226,0"
             style="fill:#6d7579;fill-opacity:1;fill-rule:nonzero;stroke:none"
             id="path3021" />
        </g>
        <g
           id="g4125">
          <path
             d="m 135.625,522.6875 a 0.46629883,0.46629883 0 0 0 -0.375,0.46875 l 0,9.46875 a 0.46629883,0.46629883 0 0 0 0.46875,0.46875 l 2.03125,0 a 0.46629883,0.46629883 0 0 0 0.46875,-0.46875 l 0,-9.46875 A 0.46629883,0.46629883 0 0 0 137.75,522.6875 l -2.03125,0 a 0.46629883,0.46629883 0 0 0 -0.0937,0 z"
             id="path4119"
             style="fill:#ffffff;fill-opacity:1;fill-rule:nonzero;stroke:none"
             inkscape:original="M 135.71875 523.15625 L 135.71875 532.625 L 137.75 532.625 L 137.75 523.15625 L 135.71875 523.15625 z "
             inkscape:radius="0.46625221"
             sodipodi:type="inkscape:offset" />
          <path
             inkscape:connector-curvature="0"
             d="m 135.72437,523.1518 0,9.46463 2.0268,0 0,-9.46463 -2.0268,0"
             style="fill:#6d7579;fill-opacity:1;fill-rule:nonzero;stroke:none"
             id="path3013" />
          <path
             d="m 135.625,519.4375 a 0.467904,0.467904 0 0 0 -0.375,0.46875 l 0,2.125 a 0.467904,0.467904 0 0 0 0.46875,0.46875 l 2.03125,0 a 0.467904,0.467904 0 0 0 0.46875,-0.46875 l 0,-2.125 A 0.467904,0.467904 0 0 0 137.75,519.4375 l -2.03125,0 a 0.467904,0.467904 0 0 0 -0.0937,0 z"
             id="path4123"
             style="fill:#ffffff;fill-opacity:1;fill-rule:nonzero;stroke:none"
             inkscape:original="M 135.71875 519.90625 L 135.71875 522.03125 L 137.75 522.03125 L 137.75 519.90625 L 135.71875 519.90625 z "
             inkscape:radius="0.46785721"
             sodipodi:type="inkscape:offset" />
          <path
             inkscape:connector-curvature="0"
             d="m 135.72437,522.0236 2.0234,0 0,-2.12559 -2.0234,0 0,2.12559 z"
             style="fill:#6d7579;fill-opacity:1;fill-rule:nonzero;stroke:none"
             id="path3023" />
        </g>
      </g>
      <rect
         style="color:#000000;fill:url(#linearGradient4339);fill-opacity:1;fill-rule:nonzero;stroke:none;stroke-width:1.09584856;marker:none;visibility:visible;display:inline;overflow:visible;enable-background:accumulate"
         id="rect4214"
         width="83.602097"
         height="10.762285"
         x="80.362495"
         y="60.722462"
         ry="4.8147073" />
    </g>
  </g>
</svg>
